<?xml version="1.0" encoding="iso-8859-1"?>
<!-- Uploaded to: SVG Repo, www.svgrepo.com, Generator: SVG Repo Mixer Tools -->
<svg height="800px" width="800px" version="1.1" id="Layer_1" xmlns="http://www.w3.org/2000/svg" xmlns:xlink="http://www.w3.org/1999/xlink" 
	 viewBox="0 0 512 512" xml:space="preserve">
<path style="fill:#F7C677;" d="M363.037,353.437c-23.774,23.774-62.316,23.774-86.088,0L146.223,222.712
	c-23.772-23.774-23.772-62.317,0-86.088l0,0c23.772-23.774,62.316-23.774,86.088,0l130.726,130.725
	C386.809,291.12,386.809,329.663,363.037,353.437L363.037,353.437z"/>
<path style="opacity:0.1;enable-background:new    ;" d="M309.47,342.661L178.744,211.937c-23.772-23.774-23.772-62.317,0-86.088
	c2.631-2.631,5.453-4.955,8.406-7.004c-14.866,0.514-29.579,6.432-40.927,17.78c-23.772,23.771-23.772,62.315,0,86.088
	l130.725,130.724c21.141,21.142,53.953,23.465,77.681,7.004C338.354,361.004,321.894,355.088,309.47,342.661z"/>
<g>
	<path style="fill:#DDA657;" d="M332.027,236.338l-26.176,26.174c-4.722,4.723-4.721,12.378,0.002,17.1
		c4.722,4.723,12.376,4.723,17.098,0l26.175-26.176L332.027,236.338z"/>
	<path style="fill:#DDA657;" d="M288.327,192.638l-26.174,26.176c-4.723,4.721-4.722,12.376,0,17.098
		c4.723,4.723,12.378,4.723,17.1,0l26.174-26.174L288.327,192.638z"/>
	<path style="fill:#DDA657;" d="M244.628,148.941l-26.175,26.174c-4.722,4.723-4.722,12.378,0.001,17.098
		c4.721,4.724,12.378,4.724,17.098,0.002l26.175-26.174L244.628,148.941z"/>
</g>
<path style="fill:#EFB259;" d="M52.134,353.54c-3.161,0-6.164-1.377-8.225-3.77c-2.064-2.394-2.982-5.567-2.516-8.694
	c7.989-53.57,66.415-93.966,135.904-93.966c69.49,0,127.916,40.396,135.904,93.966c0.466,3.126-0.451,6.3-2.514,8.694
	c-2.064,2.392-5.068,3.77-8.226,3.77H52.134z"/>
<path style="opacity:0.1;enable-background:new    ;" d="M76.45,349.771c-2.064-2.394-2.982-5.567-2.516-8.694
	c7.357-49.329,57.484-87.486,119.633-93.218c-5.342-0.492-10.772-0.747-16.271-0.747c-69.489,0-127.914,40.396-135.904,93.966
	c-0.465,3.126,0.453,6.3,2.516,8.694c2.063,2.392,5.066,3.77,8.225,3.77h32.542C81.516,353.54,78.513,352.163,76.45,349.771z"/>
<g>
	<path style="fill:#D1923F;" d="M242.08,288.756c6.349,0,11.494-5.145,11.494-11.494v-12.126c-7.212-3.764-14.909-7-22.988-9.655
		v21.782C230.586,283.611,235.733,288.756,242.08,288.756z"/>
	<path style="fill:#D1923F;" d="M177.296,288.756c6.349,0,11.494-5.145,11.494-11.494v-29.773
		c-3.793-0.244-7.625-0.377-11.494-0.377c-3.867,0-7.7,0.133-11.494,0.377v29.773C165.802,283.611,170.949,288.756,177.296,288.756z
		"/>
	<path style="fill:#D1923F;" d="M112.513,288.756c6.349,0,11.494-5.145,11.494-11.494v-21.782
		c-8.079,2.655-15.774,5.892-22.988,9.655v12.126C101.019,283.611,106.166,288.756,112.513,288.756z"/>
</g>
<path style="fill:#FFEA92;" d="M407.135,324.259c0,4.831-3.916,8.747-8.747,8.747H358.15c-4.832,0-8.747-3.916-8.747-8.747V284.02
	c0-4.831,3.915-8.747,8.747-8.747h40.238c4.831,0,8.747,3.916,8.747,8.747V324.259z"/>
<path style="fill:#FFE060;" d="M448.522,290.265c3.417,3.417,3.417,8.955,0,12.37l-28.45,28.453c-3.417,3.417-8.955,3.417-12.372,0
	l-28.453-28.453c-3.415-3.415-3.417-8.953,0-12.37l28.453-28.453c3.417-3.417,8.955-3.417,12.372,0L448.522,290.265z"/>
<path style="fill:#3585B7;" d="M460.278,301.332H336.98c-5.771,0-10.449,4.678-10.449,10.449v3.135
	c0,5.769,4.678,10.449,10.449,10.449h0.746v43.81h121.806v-43.81h0.746c5.771,0,10.449-4.68,10.449-10.449v-3.135
	C470.727,306.01,466.049,301.332,460.278,301.332z"/>
<path style="opacity:0.1;enable-background:new    ;" d="M359.146,336.458v-35.126H336.98c-5.771,0-10.449,4.678-10.449,10.449
	v3.135c0,5.769,4.678,10.449,10.449,10.449h0.746v43.81h121.806v-32.717H359.146z"/>
<path style="fill:#C7B299;" d="M504.163,382.759c0,5.771-4.678,10.449-10.449,10.449H18.286c-5.771,0-10.449-4.678-10.449-10.449
	V363.95c0-5.769,4.678-10.449,10.449-10.449h475.429c5.771,0,10.449,4.68,10.449,10.449V382.759z"/>
<path style="opacity:0.1;enable-background:new    ;" d="M50.155,382.759V363.95c0-5.769,4.678-10.449,10.449-10.449H18.286
	c-5.771,0-10.449,4.68-10.449,10.449v18.808c0,5.771,4.678,10.449,10.449,10.449h42.318
	C54.833,393.208,50.155,388.531,50.155,382.759z"/>
<path d="M493.714,345.665h-26.346v-13.894c6.571-2.775,11.195-9.286,11.195-16.855v-3.135c0-10.082-8.203-18.286-18.286-18.286
	h-1.63c-0.591-3.304-2.161-6.349-4.584-8.772l-28.452-28.455c-3.133-3.132-7.298-4.857-11.728-4.857
	c-4.429,0-8.595,1.725-11.728,4.858l-11.165,11.166h-17.386c-1.556-1.945-135.754-136.353-135.754-136.353
	c-12.978-12.979-30.233-20.126-48.586-20.126s-35.608,7.147-48.585,20.125c-26.791,26.789-26.791,70.379-0.001,97.171l12.596,12.595
	c-62.418,8.245-112.032,48.087-119.637,99.074c-0.286,1.928-0.257,3.861,0.047,5.742H18.286C8.203,345.664,0,353.867,0,363.949
	v18.808c0,10.083,8.203,18.286,18.286,18.286h379.819c4.329,0,7.837-3.508,7.837-7.837c0-4.329-3.508-7.837-7.837-7.837H18.286
	c-1.441,0-2.612-1.171-2.612-2.612v-18.808c0-1.441,1.171-2.612,2.612-2.612h475.429c1.441,0,2.612,1.171,2.612,2.612v18.808
	c0,1.441-1.171,2.612-2.612,2.612h-63.217c-4.329,0-7.837,3.508-7.837,7.837c0,4.329,3.508,7.837,7.837,7.837h63.217
	c10.082,0,18.286-8.202,18.286-18.286v-18.808C512,353.868,503.796,345.665,493.714,345.665z M413.241,267.354
	c0.177-0.178,0.394-0.267,0.644-0.267s0.467,0.09,0.644,0.266l26.14,26.143h-53.57L413.241,267.354z M357.24,284.02
	c0-0.502,0.409-0.91,0.91-0.91h17.17l-1.613,1.613c-2.422,2.423-3.992,5.468-4.584,8.773H357.24V284.02z M338.042,253.437
	l-20.633,20.633c-1.767,1.77-4.746,1.596-6.315-0.339c-1.351-1.664-1.215-4.163,0.298-5.678l20.634-20.633L338.042,253.437z
	 M294.343,209.738l-20.632,20.632c-1.637,1.639-4.378,1.639-6.017,0.001c-1.639-1.639-1.639-4.377,0-6.017l20.632-20.633
	L294.343,209.738z M244.627,160.024l6.018,6.017l-20.635,20.634c-1.604,1.604-4.246,1.636-5.903,0.1
	c-1.741-1.615-1.792-4.438-0.113-6.119L244.627,160.024z M108.855,269.928c2.388-1.142,4.826-2.225,7.314-3.245v10.581
	c0,2.017-1.64,3.657-3.657,3.657s-3.657-1.641-3.657-3.657V269.928z M329.889,345.665h-8.985c0.304-1.882,0.334-3.815,0.047-5.743
	c-2.245-15.064-8.12-29.36-17.46-42.486c-2.508-3.528-7.402-4.353-10.929-1.843c-3.527,2.509-4.352,7.402-1.843,10.929
	c7.896,11.097,12.851,23.111,14.73,35.711c0.131,0.872-0.124,1.755-0.697,2.419c-0.497,0.576-1.191,0.923-1.936,1.012H51.776
	c-1.673-0.202-2.883-1.755-2.633-3.431c3.81-25.549,20.191-47.87,44.111-63.544c0.735,9.993,9.08,17.905,19.259,17.905
	c10.659,0,19.331-8.672,19.331-19.331v-16.022c8.344-2.396,17.087-4.149,26.122-5.186v21.208c0,10.659,8.672,19.331,19.331,19.331
	c10.659,0,19.331-8.672,19.331-19.331v-21.192c8.961,1.039,17.712,2.792,26.122,5.214v15.978c0,10.659,8.672,19.331,19.331,19.331
	c10.152,0,18.482-7.87,19.254-17.829c4.795,3.147,9.32,6.571,13.519,10.272c3.248,2.862,8.199,2.55,11.061-0.696
	c2.862-3.246,2.55-8.199-0.696-11.061c-27.399-24.153-66.734-38.005-107.922-38.005c-1.135,0-2.266,0.01-3.395,0.031l-22.136-22.136
	c-20.68-20.681-20.68-54.327,0-75.006c10.017-10.017,23.336-15.533,37.502-15.533c14.167,0,27.485,5.516,37.502,15.535l6.775,6.775
	l-20.633,20.632c-3.764,3.764-5.836,8.769-5.836,14.09c0,5.324,2.073,10.328,5.835,14.087c3.764,3.766,8.769,5.841,14.092,5.842
	c0,0,0.001,0,0.002,0c5.324,0,10.328-2.073,14.088-5.837l20.633-20.633l15.517,15.517l-20.629,20.632
	c-3.766,3.764-5.839,8.768-5.839,14.091c0.001,5.322,2.073,10.326,5.837,14.09c3.886,3.885,8.988,5.827,14.091,5.827
	s10.207-1.942,14.091-5.827l20.632-20.632l15.517,15.517l-20.634,20.633c-7.769,7.771-7.768,20.412,0.002,28.182
	c3.764,3.765,8.768,5.838,14.09,5.838c5.323,0,10.327-2.073,14.09-5.838l20.632-20.633l3.78,3.78
	c-6.579,2.202-11.339,8.41-11.339,15.719v9.475h-4.587c-10.082,0-18.286,8.203-18.286,18.286v3.135
	c0,7.569,4.624,14.08,11.195,16.855v13.894H329.889z M173.639,277.263v-22.271c1.215-0.025,2.434-0.043,3.657-0.043
	c1.221,0,2.44,0.015,3.657,0.041v22.273c0,2.017-1.641,3.657-3.657,3.657C175.28,280.92,173.639,279.279,173.639,277.263z
	 M238.423,277.263v-10.523c2.481,1.021,4.923,2.099,7.314,3.244v7.28c0,2.017-1.641,3.657-3.657,3.657
	S238.423,279.279,238.423,277.263z M462.89,314.915c0,1.441-1.171,2.612-2.612,2.612h-8.583v28.137h-14.927v-15.151
	c0-4.329-3.508-7.837-7.837-7.837c-4.329,0-7.837,3.508-7.837,7.837v15.151h-14.629v-15.151c0-4.329-3.508-7.837-7.837-7.837
	c-4.329,0-7.837,3.508-7.837,7.837v15.151h-14.629v-15.151c0-4.329-3.508-7.837-7.837-7.837s-7.837,3.508-7.837,7.837v15.151
	h-14.927v-28.137h-8.583c-1.441,0-2.612-1.171-2.612-2.612v-3.135c0-1.441,1.171-2.612,2.612-2.612h123.298
	c1.441,0,2.612,1.171,2.612,2.612V314.915z"/>
</svg>