<?xml version="1.0" ?>
<!DOCTYPE svg  PUBLIC '-//W3C//DTD SVG 1.1//EN'  'http://www.w3.org/Graphics/SVG/1.1/DTD/svg11.dtd'>
<!-- Uploaded to: SVG Repo, www.svgrepo.com, Generator: SVG Repo Mixer Tools -->
<svg fill="#000000" width="800px" height="800px" viewBox="0 0 100 100" version="1.1" xml:space="preserve" xmlns="http://www.w3.org/2000/svg" xmlns:xlink="http://www.w3.org/1999/xlink">
<g id="_x31_"/>
<g id="_x32_"/>
<g id="_x33_"/>
<g id="_x34_"/>
<g id="_x35_"/>
<g id="_x36_"/>
<g id="_x37_"/>
<g id="_x38_"/>
<g id="_x39_"/>
<g id="_x31_0"/>
<g id="_x31_1"/>
<g id="_x31_2"/>
<g id="_x31_3"/>
<g id="_x31_4"/>
<g id="_x31_5"/>
<g id="_x31_6"/>
<g id="_x31_7">
<path d="M49.5,71.3c-10.9,0-20.8-1.7-26.4-4.5C19.7,65,18,63,18,60.7c0-1.7,1.1-4.3,6.3-6.5c0.4-0.2,0.8-0.2,1.2,0   c1,0.4,2.1,0.8,3.3,1.2c0.6,0.2,1.1,0.8,1.1,1.4V60c0,0.6,0.5,1.1,1.1,1.1s1.1-0.5,1.1-1.1v-2c0-0.4,0.2-0.9,0.5-1.2   c0.3-0.3,0.8-0.4,1.2-0.3c4.6,0.9,10,1.4,15.6,1.4c9.6,0,18.6-1.4,24.1-3.7c0.4-0.2,0.8-0.2,1.2,0c5.2,2.2,6.3,4.8,6.3,6.5   c0,2.2-1.5,4.1-4.6,5.7C71,69.4,60.6,71.3,49.5,71.3z M24.9,57.2c-2.4,1.1-3.9,2.4-3.9,3.5c0,1,1.3,2.2,3.4,3.3   c5.2,2.6,14.8,4.2,25.1,4.2c10.6,0,20.4-1.7,25.5-4.5c1.9-1,3-2.1,3-3.1c0-1.1-1.4-2.4-3.9-3.5c-5.8,2.3-15,3.7-24.6,3.7   c-5.1,0-10-0.4-14.4-1.1V60c0,2.3-1.8,4.1-4.1,4.1s-4.1-1.9-4.1-4.1V58C26.2,57.7,25.5,57.5,24.9,57.2z M28.4,58.3   c-0.1,0-0.3,0-0.4-0.1c-1.3-0.4-2.6-0.8-3.7-1.3c-1.2-0.5-2.3-1.1-3.2-1.7c-2.1-1.4-3.1-3-3.1-4.8c0-2.4,1.9-4.5,5.7-6.3   c0.4-0.2,0.9-0.2,1.2,0c1.1,0.5,2.4,1,3.8,1.4c0.6,0.2,1.1,0.8,1.1,1.4v9.8c0,0.5-0.2,0.9-0.6,1.2C29,58.2,28.7,58.3,28.4,58.3z    M24.4,47.2c-2.1,1.1-3.4,2.3-3.4,3.3c0,0.7,0.6,1.5,1.8,2.3c0.7,0.5,1.6,1,2.6,1.4c0.4,0.2,0.9,0.4,1.4,0.6v-6.6   C26,47.8,25.2,47.5,24.4,47.2z M49.5,61c-5.8,0-11.4-0.5-16.2-1.4c-0.7-0.1-1.2-0.8-1.2-1.5v-9.8c0-0.4,0.2-0.9,0.5-1.2   c0.3-0.3,0.8-0.4,1.2-0.3c4.7,0.9,10.1,1.3,15.6,1.3c3.6,0,7.1-0.2,10.5-0.6c0.4-0.1,0.9,0.1,1.2,0.4s0.5,0.7,0.5,1.1v2.6   c0,1.1,0.9,2,2,2c1,0,1.9-0.8,2-1.9c0,0,0-0.1,0-0.1v-3.7c0-0.7,0.5-1.3,1.2-1.5c2.9-0.6,5.4-1.4,7.3-2.3c0.4-0.2,0.9-0.2,1.3,0   c3.8,1.7,5.7,3.9,5.7,6.3c0,1.7-0.9,3.2-2.8,4.6c-0.9,0.7-2.1,1.3-3.5,1.9C69,59.5,59.6,61,49.5,61z M35.1,56.8   c4.4,0.7,9.3,1.1,14.4,1.1c9.6,0,18.6-1.4,24.1-3.7c1.2-0.5,2.1-1,2.9-1.6c0.7-0.5,1.6-1.4,1.6-2.2c0-1-1.2-2.2-3.4-3.3   c-1.7,0.7-3.7,1.4-6.1,1.9v2.5c0,0.1,0,0.2,0,0.3c-0.2,2.6-2.3,4.6-4.9,4.6c-2.7,0-5-2.2-5-5v-0.9c-3,0.3-6,0.4-9.2,0.4   c-5.1,0-10-0.4-14.4-1.1V56.8z M31,64.2c-2.3,0-4.1-1.9-4.1-4.1V48.1c-1.1-0.4-2.2-0.8-3.1-1.2C19,44.7,18,42.3,18,40.6   c0-6.2,13.2-9.7,26.3-10.4c0.4,0,0.8,0.1,1.1,0.4c0.3,0.3,0.5,0.7,0.5,1.1c0,2,1.7,3.6,3.7,3.6s3.6-1.6,3.7-3.6   c0-0.4,0.2-0.8,0.5-1.1c0.3-0.3,0.7-0.4,1.1-0.4c13.1,0.7,26.3,4.2,26.3,10.4c0,1.7-1,4.1-5.7,6.3c-1.8,0.8-4.1,1.6-6.7,2.2v2.5   c0,2.7-2.2,5-5,5s-5-2.2-5-5v-0.9c-3,0.3-6,0.4-9.2,0.4c-5.1,0-10-0.4-14.4-1.1v10C35.1,62.3,33.3,64.2,31,64.2z M43.1,33.3   c-14.4,1-22.1,4.8-22.1,7.3c0,1.1,1.5,2.4,4,3.6c1.1,0.5,2.4,1,3.8,1.4c0.6,0.2,1.1,0.8,1.1,1.4v13c0,0.6,0.5,1.1,1.1,1.1   s1.1-0.5,1.1-1.1V48.3c0-0.4,0.2-0.9,0.5-1.2c0.3-0.3,0.8-0.4,1.2-0.3c4.7,0.9,10.1,1.3,15.6,1.3c3.6,0,7.1-0.2,10.5-0.6   c0.4-0.1,0.9,0.1,1.2,0.4s0.5,0.7,0.5,1.1v2.6c0,1.1,0.9,2,2,2s2-0.9,2-2v-3.7c0-0.7,0.5-1.3,1.2-1.5c2.9-0.6,5.4-1.4,7.3-2.3   c2.5-1.1,4-2.5,4-3.6c0-2.5-7.7-6.3-22-7.3c-0.8,2.9-3.4,5-6.5,5S43.8,36.2,43.1,33.3z M49.5,38.3c-3.6,0-6.6-2.9-6.7-6.4   c0-0.1,0-0.2,0-0.3c0-3.7,3-6.7,6.7-6.7s6.7,3,6.7,6.7c0,0.1,0,0.2,0,0.3C56.1,35.4,53.1,38.3,49.5,38.3z M45.8,31.6   c0,0,0,0.1,0,0.1c0,2,1.7,3.6,3.7,3.6s3.6-1.6,3.7-3.6c0,0,0-0.1,0-0.1c0-2-1.7-3.7-3.7-3.7S45.9,29.6,45.8,31.6z M53.2,31.6   C53.2,31.6,53.2,31.6,53.2,31.6h1.5H53.2z M50,79.2c-21.3,0-43.9-5.3-43.9-15c0-4.7,5.5-8.8,15.5-11.6c0.4-0.1,0.9,0,1.3,0.2   c0.7,0.5,1.6,1,2.6,1.4c0.6,0.2,0.9,0.8,0.9,1.4S26,56.7,25.5,57c-2.8,1.2-4.5,2.6-4.5,3.8c0,1,1.3,2.2,3.4,3.3   c5.2,2.6,14.8,4.2,25.1,4.2c10.6,0,20.4-1.7,25.5-4.5c1.9-1,3-2.1,3-3.1c0-1.2-1.7-2.6-4.5-3.8c-0.6-0.2-0.9-0.8-0.9-1.4   c0-0.6,0.4-1.1,0.9-1.4c1.2-0.5,2.1-1,2.9-1.6c0.4-0.3,0.8-0.4,1.3-0.2c10.4,2.8,16.2,7,16.2,11.8C93.9,73.9,71.3,79.2,50,79.2z    M21.4,55.8c-7.6,2.3-12.3,5.5-12.3,8.4c0,5.7,16.8,12,40.9,12s40.9-6.3,40.9-12c0-3.1-5.1-6.4-13.3-8.7c-0.1,0-0.1,0.1-0.2,0.1   c2.9,1.8,3.6,3.7,3.6,5.1c0,2.2-1.5,4.1-4.6,5.7c-5.5,3-15.8,4.8-26.9,4.8c-10.9,0-20.8-1.7-26.4-4.5C19.7,65,18,63,18,60.7   C18,59.4,18.7,57.6,21.4,55.8z"/>
</g>
<g id="_x31_8"/>
<g id="_x31_9"/>
<g id="_x32_0"/>
<g id="_x32_1"/>
<g id="_x32_2"/>
<g id="_x32_3"/>
<g id="_x32_4"/>
</svg>