<?xml version="1.0" encoding="iso-8859-1"?>
<!-- Uploaded to: SVG Repo, www.svgrepo.com, Generator: SVG Repo Mixer Tools -->
<svg fill="#000000" height="800px" width="800px" version="1.1" id="Layer_1" xmlns="http://www.w3.org/2000/svg" xmlns:xlink="http://www.w3.org/1999/xlink" 
	 viewBox="0 0 512 512" xml:space="preserve">
<g>
	<g>
		<path d="M303.02,236.146h-36.571c-4.329,0-7.837,3.509-7.837,7.837c0,4.328,3.508,7.837,7.837,7.837h36.571
			c4.329,0,7.837-3.509,7.837-7.837C310.857,239.655,307.349,236.146,303.02,236.146z"/>
	</g>
</g>
<g>
	<g>
		<path d="M245.551,307.199H208.98c-4.328,0-7.837,3.509-7.837,7.837s3.509,7.837,7.837,7.837h36.571
			c4.328,0,7.837-3.509,7.837-7.837S249.879,307.199,245.551,307.199z"/>
	</g>
</g>
<g>
	<g>
		<path d="M494.696,331.429c0.03-0.585,0.063-1.17,0.063-1.764c0-12.767-6.872-23.954-17.11-30.069
			c8.648-11.34,11.627-26.254,7.752-40.241c-1.706-6.153-6.588-11.034-12.739-12.737c-4.005-1.11-8.144-1.673-12.299-1.673
			c-5.169,0-10.287,0.896-15.122,2.578c0.086-1.102,0.145-2.212,0.145-3.336c0-14.365-7.145-27.085-18.06-34.817
			c10.915-7.732,18.06-20.453,18.06-34.817c0-23.52-19.135-42.654-42.654-42.654h-76.098v-14.546
			c0-9.806-7.979-17.784-17.785-17.784H203.152c-9.806,0-17.785,7.978-17.785,17.784v14.546h-76.099
			c-21.538,0-39.387,16.05-42.244,36.815c-0.003,0.028-0.007,0.055-0.01,0.084c-0.255,1.884-0.399,3.802-0.399,5.755
			c0,14.555,7.333,27.075,18.494,34.51c-11.161,7.701-18.494,20.57-18.494,35.125c0,0.213,0.017,0.422,0.02,0.634
			c-13.658,3.92-23.917,15.943-25.216,30.512c-3.301,0.182-6.577,0.702-9.768,1.586c-6.153,1.706-11.034,6.588-12.737,12.739
			c-3.93,14.182-0.799,29.31,8.131,40.709H24.42C10.955,330.367,0,341.322,0,354.787s10.955,24.42,24.42,24.42h26.971
			c14.388,20.451,38.071,33.225,63.928,33.225h199.195c4.329,0,7.837-3.509,7.837-7.837c0-4.328-3.508-7.837-7.837-7.837H115.319
			c-16.548,0-31.977-6.553-43.378-17.551h368.118c-11.401,10.999-26.83,17.551-43.378,17.551h-47.685
			c-4.329,0-7.837,3.509-7.837,7.837c0,4.328,3.508,7.837,7.837,7.837h47.685c25.856,0,49.539-12.774,63.929-33.225h26.969
			c13.467,0,24.421-10.955,24.421-24.42C512,343.797,504.701,334.482,494.696,331.429z M479.086,329.665
			c0,0.236-0.013,0.468-0.021,0.702h-38.619c-0.009-0.234-0.022-0.466-0.022-0.702c0-10.659,8.672-19.331,19.331-19.331
			S479.086,319.006,479.086,329.665z M438.898,269.473c5.63-5.628,13.452-8.856,21.463-8.856c2.742,0,5.472,0.371,8.116,1.103
			c0.879,0.243,1.577,0.941,1.82,1.819c2.919,10.54-0.052,21.874-7.755,29.577c-0.549,0.549-1.124,1.068-1.714,1.572
			c-0.357-0.012-0.713-0.028-1.073-0.028c-5.166,0-10.063,1.143-14.479,3.163l10.617-10.618c3.06-3.06,3.06-8.023,0-11.082
			c-3.062-3.06-8.023-3.06-11.083,0l-9.848,9.847c-1.137-1.317-2.349-2.565-3.633-3.737
			C432.737,277.488,435.291,273.08,438.898,269.473z M402.731,201.532h-22.517c5.587-4.151,9.214-10.798,9.214-18.276v-5.842h40.129
			C428.124,190.95,416.641,201.532,402.731,201.532z M201.04,117.351c0-1.164,0.947-2.111,2.112-2.111h105.696
			c1.164,0,2.112,0.947,2.112,2.111v14.546H201.04V117.351z M109.269,147.57h293.462c10.244,0,19.172,5.739,23.739,14.17h-44.877
			c-4.329,0-7.837,3.509-7.837,7.837v13.679c0,3.907-3.179,7.085-7.085,7.085c-3.906,0-7.084-3.179-7.084-7.085v-13.679
			c0-4.328-3.508-7.837-7.837-7.837h-26.786c-4.329,0-7.837,3.509-7.837,7.837c0,4.328,3.508,7.837,7.837,7.837h18.948v5.842
			c0,7.478,3.628,14.126,9.213,18.276H153.166v-24.118h5.488c0.523,12.088,10.522,21.761,22.737,21.761s22.214-9.673,22.737-21.761
			h89.488c4.329,0,7.837-3.509,7.837-7.837c0-4.328-3.508-7.837-7.837-7.837h-97.304c-4.328,0-7.837,3.509-7.837,7.837v6.84
			c0,3.907-3.179,7.084-7.085,7.084c-3.907,0-7.084-3.179-7.084-7.084v-6.84c0-4.328-3.509-7.837-7.837-7.837H145.33
			c-4.328,0-7.837,3.509-7.837,7.837v73.988c0,3.564-2.9,6.464-6.463,6.464c-3.564,0-6.464-2.9-6.464-6.464v-73.988
			c0-4.328-3.509-7.837-7.837-7.837H85.529C90.098,153.31,99.025,147.57,109.269,147.57z M82.441,177.414h26.452v24.109
			C95.153,201.334,83.862,190.827,82.441,177.414z M108.893,217.215v26.35c0,12.206,9.931,22.137,22.137,22.137
			s22.136-9.931,22.136-22.137v-26.36H402.73c12.079,0,22.327,7.978,25.757,18.941h-98.299c-4.329,0-7.837,3.509-7.837,7.837
			c0,4.328,3.508,7.837,7.837,7.837h98.417c-3.301,11.17-13.646,19.347-25.874,19.347H109.269c-14.877,0-26.98-12.103-26.98-26.98
			C82.288,229.435,94.189,217.418,108.893,217.215z M424.774,330.367h-32.013c-0.253-1.241-0.402-2.52-0.402-3.836
			c0-10.659,8.672-19.331,19.331-19.331c6.638,0,12.504,3.366,15.986,8.478c-1.877,4.287-2.925,9.015-2.925,13.987
			C424.751,329.901,424.769,330.132,424.774,330.367z M376.904,330.367H127.015c-0.24-2.59-0.772-5.097-1.547-7.494h56.345
			c4.328,0,7.837-3.509,7.837-7.837s-3.509-7.837-7.837-7.837H115.08c-6.144-5.335-14.154-8.576-22.913-8.576
			c-1.848,0-3.663,0.146-5.436,0.424c4.825-7.339,13.115-12.208,22.536-12.208H402.73c6.095,0,11.722,2.033,16.244,5.454
			c-2.35-0.502-4.787-0.768-7.285-0.768c-19.301,0-35.004,15.703-35.004,35.004C376.686,327.828,376.765,329.106,376.904,330.367z
			 M111.201,330.367H73.135c1.557-9.108,9.489-16.07,19.034-16.07C101.713,314.297,109.644,321.259,111.201,330.367z
			 M69.789,260.278c3.099,7.566,8.299,14.058,14.887,18.725c-3.466,2.456-6.548,5.418-9.146,8.772
			c-5.247-4.942-11.631-8.573-18.517-10.615C57.538,269.351,62.71,262.813,69.789,260.278z M34.018,293.843
			c0.243-0.879,0.941-1.577,1.819-1.82c2.642-0.732,5.371-1.103,8.113-1.103c8.012,0,15.834,3.228,21.464,8.858
			c0.961,0.961,1.844,1.981,2.655,3.047c-0.578,2.16-0.984,4.388-1.216,6.666c-0.699,0.732-1.368,1.494-2.001,2.285l-5.349-5.349
			c-3.06-3.06-8.023-3.06-11.082,0c-3.061,3.061-3.061,8.023,0,11.082l9.398,9.398c-0.222,1.135-0.389,2.288-0.497,3.46h-4.654
			c-4.071-1.507-7.815-3.863-10.897-6.945C34.067,315.717,31.097,304.385,34.018,293.843z M487.579,363.534H24.42
			c-4.823,0-8.747-3.924-8.747-8.747s3.924-8.747,8.747-8.747h463.158c4.823,0,8.748,3.924,8.748,8.747
			S492.402,363.534,487.579,363.534z"/>
	</g>
</g>
</svg>